<mxfile host="app.diagrams.net" modified="2023-10-27T06:06:29.638Z" agent="Mozilla/5.0 (Windows NT 10.0; Win64; x64) AppleWebKit/537.36 (KHTML, like Gecko) Chrome/118.0.0.0 Safari/537.36" etag="uiBiowQerbNpS0adCzgz" version="22.0.8" type="device">
  <diagram name="Page-1" id="58cdce13-f638-feb5-8d6f-7d28b1aa9fa0">
    <mxGraphModel dx="1750" dy="903" grid="1" gridSize="10" guides="1" tooltips="1" connect="1" arrows="1" fold="1" page="1" pageScale="1" pageWidth="1100" pageHeight="850" background="none" math="0" shadow="0">
      <root>
        <mxCell id="0" />
        <mxCell id="1" parent="0" />
        <mxCell id="382b91b5511bd0f7-1" value="" style="ellipse;html=1;shape=startState;fillColor=#000000;strokeColor=#ff0000;rounded=1;shadow=0;comic=0;labelBackgroundColor=none;fontFamily=Verdana;fontSize=12;fontColor=#000000;align=center;direction=south;" parent="1" vertex="1">
          <mxGeometry x="155" y="135" width="30" height="30" as="geometry" />
        </mxCell>
        <mxCell id="382b91b5511bd0f7-6" value="Log Into Website" style="rounded=1;whiteSpace=wrap;html=1;arcSize=24;fillColor=#ffffc0;strokeColor=#ff0000;shadow=0;comic=0;labelBackgroundColor=none;fontFamily=Verdana;fontSize=12;fontColor=#000000;align=center;" parent="1" vertex="1">
          <mxGeometry x="240" y="120" width="120" height="60" as="geometry" />
        </mxCell>
        <mxCell id="C6AJvxLIcbOSVRYiYPbj-8" style="edgeStyle=orthogonalEdgeStyle;rounded=0;orthogonalLoop=1;jettySize=auto;html=1;exitX=0.5;exitY=0;exitDx=0;exitDy=0;entryX=0.5;entryY=1;entryDx=0;entryDy=0;fillColor=#f8cecc;strokeColor=#b85450;" edge="1" parent="1">
          <mxGeometry relative="1" as="geometry">
            <mxPoint x="560" y="400" as="sourcePoint" />
            <mxPoint x="560" y="180" as="targetPoint" />
          </mxGeometry>
        </mxCell>
        <mxCell id="2a3bc250acf0617d-7" value="DL Model" style="swimlane;whiteSpace=wrap;html=1;rounded=1;shadow=0;comic=0;labelBackgroundColor=none;strokeWidth=1;fontFamily=Verdana;fontSize=12;align=center;" parent="1" vertex="1">
          <mxGeometry x="95" y="495" width="930" height="200" as="geometry" />
        </mxCell>
        <mxCell id="3cde6dad864a17aa-10" style="edgeStyle=elbowEdgeStyle;html=1;labelBackgroundColor=none;endArrow=open;endSize=8;strokeColor=#ff0000;fontFamily=Verdana;fontSize=12;align=left;" parent="2a3bc250acf0617d-7" source="382b91b5511bd0f7-8" target="3cde6dad864a17aa-1" edge="1">
          <mxGeometry relative="1" as="geometry" />
        </mxCell>
        <mxCell id="382b91b5511bd0f7-8" value="Load user information" style="rounded=1;whiteSpace=wrap;html=1;arcSize=24;fillColor=#ffffc0;strokeColor=#ff0000;shadow=0;comic=0;labelBackgroundColor=none;fontFamily=Verdana;fontSize=12;fontColor=#000000;align=center;" parent="2a3bc250acf0617d-7" vertex="1">
          <mxGeometry x="156" y="65" width="120" height="60" as="geometry" />
        </mxCell>
        <mxCell id="3cde6dad864a17aa-9" style="edgeStyle=elbowEdgeStyle;html=1;labelBackgroundColor=none;endArrow=open;endSize=8;strokeColor=#ff0000;fontFamily=Verdana;fontSize=12;align=left;" parent="2a3bc250acf0617d-7" source="2a3bc250acf0617d-3" target="382b91b5511bd0f7-8" edge="1">
          <mxGeometry relative="1" as="geometry" />
        </mxCell>
        <mxCell id="2a3bc250acf0617d-3" value="" style="ellipse;html=1;shape=startState;fillColor=#000000;strokeColor=#ff0000;rounded=1;shadow=0;comic=0;labelBackgroundColor=none;fontFamily=Verdana;fontSize=12;fontColor=#000000;align=center;direction=south;" parent="2a3bc250acf0617d-7" vertex="1">
          <mxGeometry x="75" y="80" width="30" height="30" as="geometry" />
        </mxCell>
        <mxCell id="C6AJvxLIcbOSVRYiYPbj-4" style="edgeStyle=orthogonalEdgeStyle;rounded=0;orthogonalLoop=1;jettySize=auto;html=1;exitX=0.5;exitY=0;exitDx=0;exitDy=0;" edge="1" parent="2a3bc250acf0617d-7" source="3cde6dad864a17aa-1">
          <mxGeometry relative="1" as="geometry">
            <mxPoint x="459.6363636363635" y="25" as="targetPoint" />
          </mxGeometry>
        </mxCell>
        <mxCell id="3cde6dad864a17aa-1" value="Generate vector embedding of recommendation" style="rounded=1;whiteSpace=wrap;html=1;arcSize=24;fillColor=#ffffc0;strokeColor=#ff0000;shadow=0;comic=0;labelBackgroundColor=none;fontFamily=Verdana;fontSize=12;fontColor=#000000;align=center;" parent="2a3bc250acf0617d-7" vertex="1">
          <mxGeometry x="400" y="65" width="120" height="60" as="geometry" />
        </mxCell>
        <mxCell id="3cde6dad864a17aa-2" value="Generate New Page of recommendation" style="rounded=1;whiteSpace=wrap;html=1;arcSize=24;fillColor=#ffffc0;strokeColor=#ff0000;shadow=0;comic=0;labelBackgroundColor=none;fontFamily=Verdana;fontSize=12;fontColor=#000000;align=center;" parent="2a3bc250acf0617d-7" vertex="1">
          <mxGeometry x="585" y="65" width="120" height="60" as="geometry" />
        </mxCell>
        <mxCell id="C6AJvxLIcbOSVRYiYPbj-2" value="Model" style="text;html=1;strokeColor=none;fillColor=none;align=center;verticalAlign=middle;whiteSpace=wrap;rounded=0;fontSize=22;" vertex="1" parent="2a3bc250acf0617d-7">
          <mxGeometry x="25" y="35" width="115" height="70" as="geometry" />
        </mxCell>
        <mxCell id="C6AJvxLIcbOSVRYiYPbj-43" value="" style="endArrow=classic;html=1;rounded=0;entryX=0.444;entryY=1.01;entryDx=0;entryDy=0;entryPerimeter=0;fillColor=#f8cecc;strokeColor=#b85450;" edge="1" parent="2a3bc250acf0617d-7" target="C6AJvxLIcbOSVRYiYPbj-39">
          <mxGeometry width="50" height="50" relative="1" as="geometry">
            <mxPoint x="705" y="95" as="sourcePoint" />
            <mxPoint x="755" y="45" as="targetPoint" />
            <Array as="points">
              <mxPoint x="808" y="95" />
            </Array>
          </mxGeometry>
        </mxCell>
        <mxCell id="2a3bc250acf0617d-9" style="edgeStyle=orthogonalEdgeStyle;html=1;labelBackgroundColor=none;endArrow=open;endSize=8;strokeColor=#ff0000;fontFamily=Verdana;fontSize=12;align=left;" parent="1" source="382b91b5511bd0f7-1" target="382b91b5511bd0f7-6" edge="1">
          <mxGeometry relative="1" as="geometry" />
        </mxCell>
        <mxCell id="C6AJvxLIcbOSVRYiYPbj-1" value="User" style="text;html=1;strokeColor=none;fillColor=none;align=center;verticalAlign=middle;whiteSpace=wrap;rounded=0;fontSize=22;" vertex="1" parent="1">
          <mxGeometry x="112.5" y="95" width="115" height="70" as="geometry" />
        </mxCell>
        <mxCell id="C6AJvxLIcbOSVRYiYPbj-3" value="" style="endArrow=classic;html=1;rounded=0;fillColor=#f8cecc;strokeColor=#b85450;" edge="1" parent="1">
          <mxGeometry width="50" height="50" relative="1" as="geometry">
            <mxPoint x="290" y="180" as="sourcePoint" />
            <mxPoint x="290" y="560" as="targetPoint" />
          </mxGeometry>
        </mxCell>
        <mxCell id="C6AJvxLIcbOSVRYiYPbj-7" value="" style="endArrow=classic;html=1;rounded=0;" edge="1" parent="1" target="C6AJvxLIcbOSVRYiYPbj-17">
          <mxGeometry width="50" height="50" relative="1" as="geometry">
            <mxPoint x="556" y="500" as="sourcePoint" />
            <mxPoint x="556.0000000000001" y="460" as="targetPoint" />
          </mxGeometry>
        </mxCell>
        <mxCell id="C6AJvxLIcbOSVRYiYPbj-9" value="Agent" style="swimlane;whiteSpace=wrap;html=1;rounded=1;shadow=0;comic=0;labelBackgroundColor=none;strokeWidth=1;fontFamily=Verdana;fontSize=12;align=center;" vertex="1" parent="1">
          <mxGeometry x="95" y="300" width="930" height="195" as="geometry" />
        </mxCell>
        <mxCell id="C6AJvxLIcbOSVRYiYPbj-12" value="" style="ellipse;html=1;shape=endState;fillColor=#000000;strokeColor=#ff0000;rounded=1;shadow=0;comic=0;labelBackgroundColor=none;fontFamily=Verdana;fontSize=12;fontColor=#000000;align=center;" vertex="1" parent="C6AJvxLIcbOSVRYiYPbj-9">
          <mxGeometry x="894" y="80" width="30" height="30" as="geometry" />
        </mxCell>
        <mxCell id="C6AJvxLIcbOSVRYiYPbj-13" style="edgeStyle=elbowEdgeStyle;html=1;labelBackgroundColor=none;endArrow=open;endSize=8;strokeColor=#ff0000;fontFamily=Verdana;fontSize=12;align=left;entryX=0;entryY=0.5;entryDx=0;entryDy=0;" edge="1" parent="C6AJvxLIcbOSVRYiYPbj-9" source="C6AJvxLIcbOSVRYiYPbj-14" target="C6AJvxLIcbOSVRYiYPbj-17">
          <mxGeometry relative="1" as="geometry">
            <mxPoint x="215" y="95" as="targetPoint" />
          </mxGeometry>
        </mxCell>
        <mxCell id="C6AJvxLIcbOSVRYiYPbj-14" value="" style="ellipse;html=1;shape=startState;fillColor=#000000;strokeColor=#ff0000;rounded=1;shadow=0;comic=0;labelBackgroundColor=none;fontFamily=Verdana;fontSize=12;fontColor=#000000;align=center;direction=south;" vertex="1" parent="C6AJvxLIcbOSVRYiYPbj-9">
          <mxGeometry x="75" y="80" width="30" height="30" as="geometry" />
        </mxCell>
        <mxCell id="C6AJvxLIcbOSVRYiYPbj-15" style="edgeStyle=elbowEdgeStyle;html=1;labelBackgroundColor=none;endArrow=open;endSize=8;strokeColor=#ff0000;fontFamily=Verdana;fontSize=12;align=left;" edge="1" parent="C6AJvxLIcbOSVRYiYPbj-9" source="C6AJvxLIcbOSVRYiYPbj-17" target="C6AJvxLIcbOSVRYiYPbj-19">
          <mxGeometry relative="1" as="geometry" />
        </mxCell>
        <mxCell id="C6AJvxLIcbOSVRYiYPbj-17" value="Display page of recommendation" style="rounded=1;whiteSpace=wrap;html=1;arcSize=24;fillColor=#ffffc0;strokeColor=#ff0000;shadow=0;comic=0;labelBackgroundColor=none;fontFamily=Verdana;fontSize=12;fontColor=#000000;align=center;" vertex="1" parent="C6AJvxLIcbOSVRYiYPbj-9">
          <mxGeometry x="400" y="65" width="120" height="60" as="geometry" />
        </mxCell>
        <mxCell id="C6AJvxLIcbOSVRYiYPbj-18" style="edgeStyle=elbowEdgeStyle;html=1;labelBackgroundColor=none;endArrow=open;endSize=8;strokeColor=#ff0000;fontFamily=Verdana;fontSize=12;align=left;" edge="1" parent="C6AJvxLIcbOSVRYiYPbj-9" source="C6AJvxLIcbOSVRYiYPbj-39" target="C6AJvxLIcbOSVRYiYPbj-12">
          <mxGeometry relative="1" as="geometry" />
        </mxCell>
        <mxCell id="C6AJvxLIcbOSVRYiYPbj-19" value="Observe New state,reward" style="rounded=1;whiteSpace=wrap;html=1;arcSize=24;fillColor=#ffffc0;strokeColor=#ff0000;shadow=0;comic=0;labelBackgroundColor=none;fontFamily=Verdana;fontSize=12;fontColor=#000000;align=center;" vertex="1" parent="C6AJvxLIcbOSVRYiYPbj-9">
          <mxGeometry x="585" y="65" width="120" height="60" as="geometry" />
        </mxCell>
        <mxCell id="C6AJvxLIcbOSVRYiYPbj-20" value="Agent" style="text;html=1;strokeColor=none;fillColor=none;align=center;verticalAlign=middle;whiteSpace=wrap;rounded=0;fontSize=22;" vertex="1" parent="C6AJvxLIcbOSVRYiYPbj-9">
          <mxGeometry x="25" y="35" width="115" height="70" as="geometry" />
        </mxCell>
        <mxCell id="C6AJvxLIcbOSVRYiYPbj-35" value="" style="endArrow=classic;html=1;rounded=0;fillColor=#f8cecc;strokeColor=#b85450;" edge="1" parent="C6AJvxLIcbOSVRYiYPbj-9" target="3cde6dad864a17aa-2">
          <mxGeometry width="50" height="50" relative="1" as="geometry">
            <mxPoint x="645" y="125" as="sourcePoint" />
            <mxPoint x="695" y="75" as="targetPoint" />
          </mxGeometry>
        </mxCell>
        <mxCell id="C6AJvxLIcbOSVRYiYPbj-39" value="Display Page of recommendation" style="rounded=1;whiteSpace=wrap;html=1;arcSize=24;fillColor=#ffffc0;strokeColor=#ff0000;shadow=0;comic=0;labelBackgroundColor=none;fontFamily=Verdana;fontSize=12;fontColor=#000000;align=center;" vertex="1" parent="C6AJvxLIcbOSVRYiYPbj-9">
          <mxGeometry x="755" y="65" width="120" height="60" as="geometry" />
        </mxCell>
        <mxCell id="C6AJvxLIcbOSVRYiYPbj-40" value="" style="edgeStyle=elbowEdgeStyle;html=1;labelBackgroundColor=none;endArrow=open;endSize=8;strokeColor=#ff0000;fontFamily=Verdana;fontSize=12;align=left;" edge="1" parent="C6AJvxLIcbOSVRYiYPbj-9" source="C6AJvxLIcbOSVRYiYPbj-19" target="C6AJvxLIcbOSVRYiYPbj-39">
          <mxGeometry relative="1" as="geometry">
            <mxPoint x="800" y="395" as="sourcePoint" />
            <mxPoint x="989" y="395" as="targetPoint" />
          </mxGeometry>
        </mxCell>
        <mxCell id="C6AJvxLIcbOSVRYiYPbj-52" value="" style="endArrow=classic;html=1;rounded=0;fillColor=#f8cecc;strokeColor=#b85450;" edge="1" parent="C6AJvxLIcbOSVRYiYPbj-9" target="C6AJvxLIcbOSVRYiYPbj-44">
          <mxGeometry width="50" height="50" relative="1" as="geometry">
            <mxPoint x="805" y="70" as="sourcePoint" />
            <mxPoint x="805" y="-110" as="targetPoint" />
          </mxGeometry>
        </mxCell>
        <mxCell id="C6AJvxLIcbOSVRYiYPbj-26" value="Actions" style="rounded=1;whiteSpace=wrap;html=1;arcSize=24;fillColor=#ffffc0;strokeColor=#ff0000;shadow=0;comic=0;labelBackgroundColor=none;fontFamily=Verdana;fontSize=12;fontColor=#000000;align=center;" vertex="1" parent="1">
          <mxGeometry x="500" y="120" width="120" height="60" as="geometry" />
        </mxCell>
        <mxCell id="C6AJvxLIcbOSVRYiYPbj-28" value="" style="ellipse;html=1;shape=endState;fillColor=#000000;strokeColor=#ff0000;rounded=1;shadow=0;comic=0;labelBackgroundColor=none;fontFamily=Verdana;fontSize=12;fontColor=#000000;align=center;" vertex="1" parent="1">
          <mxGeometry x="984" y="120" width="30" height="30" as="geometry" />
        </mxCell>
        <mxCell id="C6AJvxLIcbOSVRYiYPbj-44" value="Logout" style="rhombus;whiteSpace=wrap;html=1;fillColor=#fff2cc;strokeColor=#d6b656;" vertex="1" parent="1">
          <mxGeometry x="860" y="100" width="80" height="80" as="geometry" />
        </mxCell>
        <mxCell id="C6AJvxLIcbOSVRYiYPbj-48" value="" style="endArrow=classic;html=1;rounded=0;fillColor=#f8cecc;strokeColor=#b85450;" edge="1" parent="1" target="C6AJvxLIcbOSVRYiYPbj-19">
          <mxGeometry width="50" height="50" relative="1" as="geometry">
            <mxPoint x="620" y="170" as="sourcePoint" />
            <mxPoint x="670" y="120" as="targetPoint" />
            <Array as="points">
              <mxPoint x="740" y="170" />
            </Array>
          </mxGeometry>
        </mxCell>
        <mxCell id="C6AJvxLIcbOSVRYiYPbj-49" value="" style="endArrow=classic;html=1;rounded=0;entryX=0.997;entryY=0.353;entryDx=0;entryDy=0;entryPerimeter=0;fillColor=#f8cecc;strokeColor=#b85450;" edge="1" parent="1" target="C6AJvxLIcbOSVRYiYPbj-26">
          <mxGeometry width="50" height="50" relative="1" as="geometry">
            <mxPoint x="860" y="141" as="sourcePoint" />
            <mxPoint x="930" y="90" as="targetPoint" />
          </mxGeometry>
        </mxCell>
        <mxCell id="C6AJvxLIcbOSVRYiYPbj-51" value="" style="endArrow=classic;html=1;rounded=0;fillColor=#f8cecc;strokeColor=#b85450;" edge="1" parent="1">
          <mxGeometry width="50" height="50" relative="1" as="geometry">
            <mxPoint x="934" y="135" as="sourcePoint" />
            <mxPoint x="984" y="135" as="targetPoint" />
          </mxGeometry>
        </mxCell>
        <mxCell id="C6AJvxLIcbOSVRYiYPbj-66" value="User" style="swimlane;" vertex="1" parent="1">
          <mxGeometry x="98" y="60" width="925" height="240" as="geometry" />
        </mxCell>
      </root>
    </mxGraphModel>
  </diagram>
</mxfile>
